<svg width="36" height="36" viewBox="0 0 36 36" fill="none" xmlns="http://www.w3.org/2000/svg">
<g clip-path="url(#clip0_5_44)">
<path d="M6 24L15 13.5L22.5 21L30 12" stroke="white" stroke-width="3" stroke-linecap="round" stroke-linejoin="round"/>
<path d="M21 21C21 21.3978 21.158 21.7794 21.4393 22.0607C21.7206 22.342 22.1022 22.5 22.5 22.5C22.8978 22.5 23.2794 22.342 23.5607 22.0607C23.842 21.7794 24 21.3978 24 21C24 20.6022 23.842 20.2206 23.5607 19.9393C23.2794 19.658 22.8978 19.5 22.5 19.5C22.1022 19.5 21.7206 19.658 21.4393 19.9393C21.158 20.2206 21 20.6022 21 21Z" stroke="white" stroke-width="3" stroke-linecap="round" stroke-linejoin="round"/>
<path d="M13.5 13.5C13.5 13.8978 13.658 14.2794 13.9393 14.5607C14.2206 14.842 14.6022 15 15 15C15.3978 15 15.7794 14.842 16.0607 14.5607C16.342 14.2794 16.5 13.8978 16.5 13.5C16.5 13.1022 16.342 12.7206 16.0607 12.4393C15.7794 12.158 15.3978 12 15 12C14.6022 12 14.2206 12.158 13.9393 12.4393C13.658 12.7206 13.5 13.1022 13.5 13.5Z" stroke="white" stroke-width="3" stroke-linecap="round" stroke-linejoin="round"/>
<path d="M4.5 24C4.5 24.3978 4.65804 24.7794 4.93934 25.0607C5.22064 25.342 5.60218 25.5 6 25.5C6.39782 25.5 6.77936 25.342 7.06066 25.0607C7.34196 24.7794 7.5 24.3978 7.5 24C7.5 23.6022 7.34196 23.2206 7.06066 22.9393C6.77936 22.658 6.39782 22.5 6 22.5C5.60218 22.5 5.22064 22.658 4.93934 22.9393C4.65804 23.2206 4.5 23.6022 4.5 24Z" stroke="white" stroke-width="3" stroke-linecap="round" stroke-linejoin="round"/>
<path d="M28.5 12C28.5 12.3978 28.658 12.7794 28.9393 13.0607C29.2206 13.342 29.6022 13.5 30 13.5C30.3978 13.5 30.7794 13.342 31.0607 13.0607C31.342 12.7794 31.5 12.3978 31.5 12C31.5 11.6022 31.342 11.2206 31.0607 10.9393C30.7794 10.658 30.3978 10.5 30 10.5C29.6022 10.5 29.2206 10.658 28.9393 10.9393C28.658 11.2206 28.5 11.6022 28.5 12Z" stroke="white" stroke-width="3" stroke-linecap="round" stroke-linejoin="round"/>
</g>
<defs>
<clipPath id="clip0_5_44">
<rect width="36" height="36" fill="white"/>
</clipPath>
</defs>
</svg>
