<svg width="24" height="25" viewBox="0 0 24 25" fill="none" xmlns="http://www.w3.org/2000/svg">
<path fill-rule="evenodd" clip-rule="evenodd" d="M12.0001 2.17999C12.3977 2.17999 12.7201 2.50234 12.7201 2.89999V13.9618L16.2911 10.3909C16.5722 10.1097 17.028 10.1097 17.3091 10.3909C17.5904 10.6721 17.5904 11.1279 17.3091 11.4091L12.5092 16.2091C12.228 16.4903 11.7722 16.4903 11.491 16.2091L6.69097 11.4091C6.40979 11.1279 6.40979 10.6721 6.69097 10.3909C6.97216 10.1097 7.42803 10.1097 7.70921 10.3909L11.2801 13.9618V2.89999C11.2801 2.50234 11.6024 2.17999 12.0001 2.17999ZM4.00001 16.5C4.44184 16.5 4.80001 16.8582 4.80001 17.3V19.7C4.80001 20.5863 5.51305 21.3 6.39417 21.3H17.6019C18.4847 21.3 19.2 20.5845 19.2 19.7V17.3C19.2 16.8582 19.5583 16.5 20 16.5C20.4418 16.5 20.8 16.8582 20.8 17.3V19.7C20.8 21.4666 19.3699 22.9 17.6019 22.9H6.39417C4.62432 22.9 3.20001 21.4648 3.20001 19.7V17.3C3.20001 16.8582 3.55819 16.5 4.00001 16.5Z" fill="black"/>
</svg>
